<svg width="23" height="23" viewBox="0 0 23 23" fill="none" xmlns="http://www.w3.org/2000/svg">
<path d="M11.5 23C17.8513 23 23 17.8513 23 11.5C23 5.14873 17.8513 0 11.5 0C5.14873 0 0 5.14873 0 11.5C0 17.8513 5.14873 23 11.5 23Z" fill="#007AFF"/>
<path fill-rule="evenodd" clip-rule="evenodd" d="M8.29638 7.59821H14.7446C14.991 7.59821 15.1964 7.63928 15.4428 7.76249C15.7303 7.88571 15.8946 8.09106 15.9767 8.25535C15.9767 8.25535 15.9767 8.29642 16.0178 8.29642C16.141 8.50178 16.2232 8.74821 16.2232 9.03571C16.2232 9.28213 16.1821 9.52856 16.0178 9.77499L11.9517 16.7571C11.8696 16.9214 11.7053 17.0036 11.5 17.0036C11.3357 17.0036 11.1714 16.9214 11.0482 16.7571L7.06424 9.77499C6.9821 9.61071 6.81781 9.40535 6.81781 9.07678C6.77674 8.78928 6.85888 8.54285 6.9821 8.29642C7.10531 8.04999 7.31067 7.84463 7.59817 7.76249C7.8446 7.59821 8.1321 7.59821 8.29638 7.59821ZM11.0071 8.58392H8.29638C8.1321 8.58392 8.04996 8.58392 8.00888 8.62499C7.92674 8.66606 7.88567 8.70713 7.8446 8.78928C7.80353 8.83035 7.80353 8.91249 7.80353 8.99463C7.80353 9.03571 7.8446 9.07678 7.92674 9.24106L11.0071 14.5803V8.58392ZM11.9928 8.58392V14.6214L15.1142 9.24106C15.1553 9.15892 15.1553 9.07678 15.1553 8.99463C15.1553 8.91249 15.1553 8.83035 15.1142 8.78928C15.0732 8.74821 15.0732 8.70713 15.0321 8.70713L14.991 8.66606C14.9089 8.62499 14.8267 8.62499 14.7035 8.62499H11.9928V8.58392Z" fill="white"/>
</svg>
