<svg width="749" height="602" viewBox="0 0 749 602" fill="none" xmlns="http://www.w3.org/2000/svg">
<g clip-path="url(#clip0_29_67)">
<path d="M426.023 340.432C427.388 340.281 428.704 339.832 429.877 339.118C431.051 338.404 432.053 337.441 432.815 336.298C433.576 335.155 434.078 333.858 434.284 332.5C434.49 331.142 434.396 329.755 434.009 328.438L461.183 309.028L444.989 302.792L421.667 322.18C419.496 322.978 417.693 324.545 416.6 326.583C415.507 328.622 415.199 330.991 415.737 333.241C416.274 335.491 417.618 337.466 419.514 338.791C421.41 340.117 423.725 340.7 426.023 340.432Z" fill="#FFB7B7"/>
<path d="M441.113 327.647L432.098 312.247L432.289 312.029L468.661 270.621L496.901 222.462L521.424 225.587L521.786 232.999L521.713 233.11L482.752 291.677L482.711 291.712L441.113 327.647Z" fill="#3F3D56"/>
<path d="M561.28 588.182H547.414L540.814 534.691H561.282L561.28 588.182Z" fill="#FFB7B7"/>
<path d="M564.817 601.625H520.101V601.06C520.102 596.445 521.936 592.02 525.199 588.757C528.462 585.494 532.887 583.661 537.501 583.659H564.815L564.817 601.625Z" fill="#2F2E41"/>
<path d="M441.927 587.729L428.438 584.508L434.443 530.947L454.351 535.701L441.927 587.729Z" fill="#FFB7B7"/>
<path d="M442.245 601.625L398.751 591.239L398.882 590.689C399.954 586.2 402.766 582.32 406.699 579.903C410.631 577.486 415.363 576.731 419.853 577.802L446.417 584.145L442.245 601.625Z" fill="#2F2E41"/>
<path d="M495.824 198.01V174.667C495.824 166.37 499.12 158.414 504.986 152.548C510.852 146.682 518.808 143.386 527.104 143.386C535.401 143.386 543.357 146.682 549.223 152.548C555.089 158.414 558.385 166.37 558.385 174.667V198.01C558.383 199.124 557.94 200.191 557.153 200.978C556.366 201.766 555.298 202.209 554.185 202.21H500.026C498.912 202.209 497.845 201.766 497.057 200.979C496.269 200.192 495.826 199.124 495.824 198.01Z" fill="#2F2E41"/>
<path d="M519.385 201.858C532.051 201.858 542.319 191.591 542.319 178.924C542.319 166.258 532.051 155.99 519.385 155.99C506.719 155.99 496.451 166.258 496.451 178.924C496.451 191.591 506.719 201.858 519.385 201.858Z" fill="#FFB7B7"/>
<path d="M488.424 176.533C488.431 169.973 491.041 163.684 495.68 159.045C500.318 154.406 506.608 151.797 513.168 151.789H517.837C524.397 151.797 530.687 154.406 535.326 159.045C539.964 163.684 542.574 169.973 542.581 176.533V177H532.714L529.349 167.577L528.676 177H523.576L521.876 172.246L521.536 177H488.424V176.533Z" fill="#2F2E41"/>
<path d="M532.758 299.965L474.366 297.743L471.102 259.543C468.585 252.551 468.544 246.543 470.981 241.699C473.077 237.718 476.599 234.674 480.842 233.176L493.619 217.744C495.263 215.761 497.326 214.167 499.661 213.079C501.996 211.991 504.543 211.434 507.119 211.45L540.319 211.677C541.119 211.196 545.973 208.729 555.546 212.877C565.929 217.377 563.518 233.011 563.492 233.168L563.468 233.315L563.354 233.415L541.272 252.015L532.758 299.965Z" fill="#3F3D56"/>
<path d="M474.835 293.638L447.215 343.996L426.274 573.096L449.934 580.322L491.814 401.105L540.414 575.238L568.78 575.944L549.469 374.994L532.593 297.194L474.835 293.638Z" fill="#2F2E41"/>
<path d="M482.994 308.755C482.409 308.271 481.782 309.091 481.594 310.588L475.849 355.988C475.66 357.488 475.98 359.088 476.564 359.579L548.012 418.91C548.597 419.393 549.224 418.574 549.412 417.077L555.157 371.678C555.346 370.178 555.026 368.577 554.442 368.087L482.994 308.755Z" fill="#007AFF"/>
<path d="M548.627 375.163C549.649 374.246 550.457 373.115 550.995 371.851C551.532 370.587 551.787 369.221 551.739 367.848C551.692 366.475 551.345 365.13 550.722 363.906C550.098 362.682 549.214 361.609 548.132 360.763L558.915 329.159L542.115 333.522L534.459 362.865C533.158 364.778 532.605 367.102 532.903 369.396C533.202 371.691 534.332 373.795 536.079 375.312C537.827 376.829 540.07 377.651 542.383 377.624C544.697 377.597 546.92 376.722 548.631 375.165L548.627 375.163Z" fill="#FFB7B7"/>
<path d="M553.444 355.983L537.144 348.719L542.62 293.586L537.52 237.992L559.283 226.247L563.894 232.061V232.193L566.337 302.493L566.324 302.546L553.444 355.983Z" fill="#3F3D56"/>
<path d="M169.968 213.223C191.106 213.223 208.241 196.088 208.241 174.95C208.241 153.813 191.106 136.677 169.968 136.677C148.83 136.677 131.695 153.813 131.695 174.95C131.695 196.088 148.83 213.223 169.968 213.223Z" fill="#007AFF"/>
<path d="M177.886 202.787C170.119 202.787 162.526 200.483 156.067 196.168C149.609 191.853 144.575 185.719 141.602 178.543C138.63 171.367 137.852 163.47 139.367 155.852C140.883 148.234 144.623 141.236 150.115 135.743C155.608 130.251 162.606 126.51 170.224 124.995C177.842 123.48 185.739 124.257 192.915 127.23C200.091 130.202 206.225 135.236 210.54 141.694C214.856 148.153 217.159 155.746 217.159 163.513C217.147 173.925 213.006 183.908 205.643 191.271C198.281 198.633 188.298 202.775 177.886 202.787ZM177.886 126.24C170.514 126.24 163.308 128.426 157.178 132.522C151.049 136.617 146.271 142.439 143.45 149.25C140.629 156.06 139.891 163.555 141.329 170.785C142.767 178.015 146.317 184.657 151.53 189.87C156.743 195.082 163.384 198.632 170.614 200.07C177.845 201.509 185.339 200.771 192.15 197.949C198.961 195.128 204.782 190.351 208.878 184.221C212.973 178.092 215.159 170.885 215.159 163.513C215.148 153.631 211.217 144.157 204.23 137.17C197.242 130.182 187.768 126.251 177.886 126.24Z" fill="#3F3D56"/>
<path d="M155.709 156.423C155.309 156.679 154.859 156.848 154.389 156.918C153.919 156.988 153.439 156.959 152.982 156.83L122.505 149.203C119.949 152.741 116.518 155.553 112.547 157.363C108.577 159.174 104.204 159.921 99.8575 159.532C95.778 159.161 91.8512 157.797 88.4196 155.56C84.988 153.324 82.1557 150.281 80.1698 146.698C78.1839 143.116 77.1047 139.101 77.0262 135.006C76.9478 130.91 77.8725 126.858 79.7197 123.202C81.5669 119.546 84.2806 116.397 87.624 114.03C90.9675 111.664 94.8391 110.151 98.9014 109.624C102.964 109.097 107.093 109.572 110.93 111.007C114.766 112.442 118.194 114.795 120.912 117.858C123.145 120.383 124.849 123.33 125.923 126.524C126.998 129.719 127.421 133.096 127.168 136.457L155.373 150.293C156.162 150.659 156.782 151.312 157.107 152.119C157.431 152.926 157.435 153.827 157.118 154.637C156.851 155.368 156.357 155.993 155.709 156.423Z" fill="#3F3D56"/>
<path d="M102.114 145.944C108.431 145.944 113.552 140.823 113.552 134.506C113.552 128.189 108.431 123.068 102.114 123.068C95.7966 123.068 90.6757 128.189 90.6757 134.506C90.6757 140.823 95.7966 145.944 102.114 145.944Z" fill="#007AFF"/>
<path d="M194.941 82.7875C194.247 83.229 193.424 83.4216 192.607 83.3336C191.74 83.2604 190.933 82.8594 190.352 82.2121C189.77 81.5648 189.457 80.7201 189.477 79.8503L189.505 48.4327C185.887 46.9876 182.654 44.7203 180.064 41.8101C177.473 38.9 175.595 35.4269 174.579 31.6655C173.562 27.9042 173.435 23.958 174.207 20.139C174.979 16.32 176.629 12.7331 179.027 9.66202C183.042 4.51945 188.9 1.14139 195.362 0.243229C201.824 -0.654934 208.382 0.99733 213.647 4.8501C218.912 8.70287 222.471 14.4536 223.569 20.8845C224.668 27.3154 223.221 33.9215 219.533 39.3037C217.624 42.0812 215.178 44.4475 212.338 46.2629C209.498 48.0782 206.324 49.3056 203.001 49.8725L196.399 80.5887C196.316 81.0342 196.144 81.4584 195.893 81.8362C195.642 82.2139 195.319 82.5374 194.941 82.7875Z" fill="#E6E6E6"/>
<path d="M198.832 36.5305C205.149 36.5305 210.27 31.4096 210.27 25.0925C210.27 18.7755 205.149 13.6545 198.832 13.6545C192.515 13.6545 187.394 18.7755 187.394 25.0925C187.394 31.4096 192.515 36.5305 198.832 36.5305Z" fill="#CCCCCC"/>
<path d="M319.361 157.484C316.068 159.624 312.319 160.965 308.415 161.399C304.512 161.834 300.56 161.349 296.877 159.985C293.72 158.804 290.832 157.003 288.384 154.687C285.936 152.371 283.977 149.587 282.623 146.501L251.223 147.527C250.359 147.555 249.515 147.262 248.854 146.705C248.193 146.148 247.762 145.366 247.643 144.51C247.524 143.654 247.726 142.784 248.21 142.068C248.694 141.351 249.427 140.84 250.266 140.631L280.755 133.059C281.281 129.198 282.699 125.513 284.896 122.295C287.093 119.077 290.009 116.414 293.413 114.518C296.816 112.621 300.615 111.543 304.507 111.369C308.4 111.194 312.28 111.928 315.84 113.512C319.965 115.347 323.519 118.26 326.128 121.945C328.737 125.631 330.304 129.951 330.665 134.452C331.025 138.952 330.166 143.467 328.176 147.52C326.187 151.574 323.142 155.016 319.361 157.484Z" fill="#E6E6E6"/>
<path d="M305.659 147.9C311.976 147.9 317.097 142.779 317.097 136.462C317.097 130.145 311.976 125.024 305.659 125.024C299.342 125.024 294.221 130.145 294.221 136.462C294.221 142.779 299.342 147.9 305.659 147.9Z" fill="#CCCCCC"/>
<path d="M230.755 257.987C225.314 261.511 218.721 262.794 212.355 261.567C205.99 260.34 200.345 256.699 196.603 251.406C192.861 246.112 191.311 239.577 192.278 233.167C193.244 226.756 196.653 220.968 201.79 217.014L193.199 186.795C192.962 185.963 193.042 185.074 193.422 184.297C193.803 183.521 194.457 182.913 195.259 182.59C196.061 182.268 196.954 182.253 197.766 182.55C198.578 182.847 199.252 183.434 199.657 184.198L214.381 211.949C218.72 211.481 223.105 212.15 227.108 213.888C231.11 215.627 234.592 218.377 237.211 221.867C239.267 224.615 240.737 227.756 241.532 231.095C242.327 234.434 242.429 237.901 241.832 241.28C241.234 244.66 239.95 247.882 238.059 250.746C236.168 253.611 233.71 256.057 230.836 257.934L230.755 257.987Z" fill="#3F3D56"/>
<path d="M217.103 248.37C223.42 248.37 228.541 243.249 228.541 236.932C228.541 230.615 223.42 225.494 217.103 225.494C210.786 225.494 205.665 230.615 205.665 236.932C205.665 243.249 210.786 248.37 217.103 248.37Z" fill="#007AFF"/>
<path d="M86.3818 277.049C82.5043 279.562 78.009 280.956 73.3901 281.08C68.7713 281.203 64.2079 280.049 60.2021 277.747C56.1963 275.444 52.9031 272.081 50.6849 268.028C48.4667 263.975 47.4093 259.388 47.6292 254.773C47.849 250.158 49.3375 245.693 51.931 241.869C54.5244 238.045 58.1223 235.01 62.3288 233.099C66.5354 231.187 71.1877 230.473 75.7739 231.035C80.3601 231.596 84.7026 233.412 88.3237 236.282L115.567 220.636C116.316 220.205 117.199 220.067 118.044 220.249C118.889 220.43 119.637 220.918 120.144 221.618C120.651 222.318 120.882 223.181 120.79 224.041C120.699 224.9 120.293 225.696 119.65 226.274L96.2838 247.275C98.2439 252.626 98.3318 258.484 96.5334 263.891C94.735 269.299 91.1563 273.937 86.3818 277.049Z" fill="#E6E6E6"/>
<path d="M71.9562 267.895C78.2732 267.895 83.3942 262.774 83.3942 256.457C83.3942 250.14 78.2732 245.019 71.9562 245.019C65.6392 245.019 60.5182 250.14 60.5182 256.457C60.5182 262.774 65.6392 267.895 71.9562 267.895Z" fill="#CCCCCC"/>
<path d="M1.24701 601.626H747.528C747.859 601.626 748.176 601.495 748.41 601.261C748.644 601.027 748.775 600.71 748.775 600.379C748.775 600.049 748.644 599.732 748.41 599.498C748.176 599.264 747.859 599.132 747.528 599.132H1.24701C0.916284 599.132 0.599108 599.264 0.36525 599.498C0.131392 599.732 0 600.049 0 600.379C0 600.71 0.131392 601.027 0.36525 601.261C0.599108 601.495 0.916284 601.626 1.24701 601.626Z" fill="#CCCCCC"/>
<path d="M52.5321 565.632C55.2653 566.593 58.1998 566.834 61.053 566.331C63.9062 565.829 66.5818 564.599 68.8221 562.762C74.5281 557.973 76.3161 550.084 77.7721 542.778L82.0771 521.17L73.0641 527.376C66.5821 531.839 59.9541 536.445 55.4641 542.91C50.9741 549.375 49.0171 558.199 52.6231 565.195" fill="#E6E6E6"/>
<path d="M53.923 593.296C52.788 585.031 51.623 576.66 52.418 568.306C53.125 560.887 55.388 553.641 59.996 547.699C62.4419 544.552 65.4182 541.854 68.791 539.729C69.67 539.174 70.48 540.568 69.604 541.12C63.7681 544.809 59.2545 550.256 56.714 556.675C53.908 563.813 53.457 571.594 53.941 579.175C54.233 583.761 54.853 588.316 55.478 592.866C55.5271 593.072 55.4963 593.289 55.3918 593.473C55.2873 593.657 55.1169 593.794 54.915 593.857C54.7089 593.913 54.4894 593.885 54.3039 593.779C54.1184 593.674 53.9819 593.5 53.924 593.294L53.923 593.296Z" fill="#F2F2F2"/>
<path d="M62.089 580.033C63.2612 581.815 64.8725 583.265 66.7676 584.243C68.6627 585.221 70.7778 585.694 72.909 585.617C78.386 585.357 82.952 581.534 87.063 577.905L99.221 567.171L91.175 566.786C85.389 566.509 79.453 566.251 73.941 568.035C68.429 569.819 63.347 574.114 62.341 579.819" fill="#E6E6E6"/>
<path d="M50.717 598.047C56.178 588.383 62.517 577.647 73.832 574.211C76.9796 573.261 80.2799 572.922 83.555 573.211C84.587 573.3 84.33 574.891 83.299 574.802C77.8095 574.345 72.33 575.793 67.783 578.902C63.5093 582.003 59.8861 585.913 57.119 590.41C55.353 593.099 53.771 595.902 52.189 598.702C51.683 599.598 50.206 598.952 50.717 598.047Z" fill="#F2F2F2"/>
<path d="M670.22 567.103C667.387 568.285 664.297 568.718 661.248 568.36C658.199 568.002 655.294 566.865 652.812 565.058C646.485 560.339 644.113 552.101 642.129 544.463L636.261 521.864L646.174 527.882C653.304 532.209 660.594 536.68 665.734 543.247C670.875 549.814 673.484 559.03 670.094 566.648" fill="#007AFF"/>
<path d="M669.292 597.753C670.553 581.824 671.639 563.908 660.894 550.7C657.903 547.032 654.239 543.968 650.098 541.676C648.795 540.951 647.822 543.057 649.123 543.782C656.042 547.657 661.414 553.797 664.335 561.169C667.16 568.246 667.89 575.927 667.798 583.487C667.741 588.118 667.372 592.736 667.009 597.353C666.89 598.826 669.175 599.242 669.292 597.753Z" fill="#F2F2F2"/>
</g>
<defs>
<clipPath id="clip0_29_67">
<rect width="748.775" height="601.626" fill="white"/>
</clipPath>
</defs>
</svg>
